<svg width="18" height="17" viewBox="0 0 18 17" fill="none" xmlns="http://www.w3.org/2000/svg">
<path d="M8.43622 0.5C6.96547 0.5 5.52776 0.936126 4.30488 1.75323C3.082 2.57033 2.12888 3.73171 1.56605 5.0905C1.00322 6.44929 0.85596 7.94446 1.14289 9.38695C1.42982 10.8294 2.13805 12.1544 3.17802 13.1944C4.21799 14.2344 5.543 14.9426 6.98548 15.2295C8.42797 15.5165 9.92314 15.3692 11.2819 14.8064C12.6407 14.2435 13.8021 13.2904 14.6192 12.0676C15.4363 10.8447 15.8724 9.40696 15.8724 7.93621C15.8723 5.96405 15.0888 4.07269 13.6943 2.67816C12.2997 1.28362 10.4084 0.500126 8.43622 0.5V0.5Z" stroke="black" stroke-miterlimit="10"/>
<path d="M13.9841 13.4841L17 16.5" stroke="black" stroke-miterlimit="10" stroke-linecap="round"/>
</svg>
