<svg width="24" height="24" viewBox="0 0 24 24" fill="none" xmlns="http://www.w3.org/2000/svg">
<path d="M11.3034 2C9.46333 2 7.66462 2.54563 6.13469 3.5679C4.60476 4.59016 3.41233 6.04315 2.70818 7.74312C2.00403 9.44308 1.81979 11.3137 2.17877 13.1184C2.53774 14.923 3.4238 16.5807 4.72489 17.8818C6.02599 19.1829 7.68369 20.069 9.48837 20.428C11.293 20.7869 13.1636 20.6027 14.8636 19.8985C16.5636 19.1944 18.0166 18.002 19.0388 16.472C20.0611 14.9421 20.6067 13.1434 20.6067 11.3034C20.6066 8.836 19.6263 6.46975 17.8817 4.72506C16.137 2.98038 13.7707 2.00016 11.3034 2V2Z" stroke="white" stroke-width="2.5" stroke-miterlimit="10"/>
<path d="M18.2445 18.2443L22.0002 22" stroke="white" stroke-width="2.5" stroke-miterlimit="10" stroke-linecap="square"/>
</svg>
