<svg width="106" height="40" viewBox="0 0 106 40" fill="none" xmlns="http://www.w3.org/2000/svg">
<path d="M15.6248 0C6.99663 0 0 6.99059 0 15.6113C0 24.232 6.99663 31.2226 15.6248 31.2226V40C15.6248 40 31.2495 34.4514 31.2495 15.6113C31.2495 6.99059 24.2529 0 15.6248 0ZM10.4793 15.6113C10.4793 12.79 12.7696 10.4702 15.6248 10.4702C18.4799 10.4702 20.7703 12.7586 20.7703 15.6113C20.7703 18.4326 18.4799 20.7524 15.6248 20.7524C12.7696 20.7524 10.4793 18.4326 10.4793 15.6113Z" fill="#256FFE"/>
<path d="M46.5683 14.2545H51.827C52.8081 14.2545 53.678 14.464 54.4367 14.8829C55.1954 15.2887 55.784 15.8582 56.2026 16.5913C56.6212 17.3113 56.8305 18.1295 56.8305 19.0458C56.8305 19.9622 56.6212 20.7869 56.2026 21.52C55.784 22.24 55.1954 22.8095 54.4367 23.2284C53.678 23.6342 52.8081 23.8371 51.827 23.8371H49.7863V28H46.5683V14.2545ZM51.4542 20.8916C52.1213 20.8916 52.6315 20.728 52.9847 20.4007C53.3509 20.0735 53.5341 19.6218 53.5341 19.0458C53.5341 18.4698 53.3509 18.0182 52.9847 17.6909C52.6315 17.3636 52.1213 17.2 51.4542 17.2H49.7863V20.8916H51.4542Z" fill="black"/>
<path d="M59.1249 25.0153H60.4592C61.0086 25.0153 61.4337 24.9498 61.7346 24.8189C62.0485 24.6749 62.3167 24.4131 62.5391 24.0335L57.5552 14.2545H61.0086L64.05 20.5185L66.6204 14.2545H69.9954L65.7963 23.9549C65.3254 25.0415 64.8545 25.8727 64.3835 26.4487C63.9126 27.0247 63.3632 27.4305 62.7353 27.6662C62.1074 27.8887 61.2964 28 60.3022 28H59.1249V25.0153Z" fill="black"/>
<path d="M74.1903 17.2393H70.4425V14.2545H81.156V17.2393H77.4083V28H74.1903V17.2393Z" fill="black"/>
<path d="M83.5372 25.0153H84.8715C85.4209 25.0153 85.846 24.9498 86.1469 24.8189C86.4608 24.6749 86.729 24.4131 86.9514 24.0335L81.9674 14.2545H85.4209L88.4622 20.5185L91.0327 14.2545H94.4076L90.2086 23.9549C89.7377 25.0415 89.2667 25.8727 88.7958 26.4487C88.3249 27.0247 87.7755 27.4305 87.1476 27.6662C86.5197 27.8887 85.7086 28 84.7145 28H83.5372V25.0153Z" fill="black"/>
<path d="M95.7378 14.2545H100.996C101.978 14.2545 102.847 14.464 103.606 14.8829C104.365 15.2887 104.953 15.8582 105.372 16.5913C105.791 17.3113 106 18.1295 106 19.0458C106 19.9622 105.791 20.7869 105.372 21.52C104.953 22.24 104.365 22.8095 103.606 23.2284C102.847 23.6342 101.978 23.8371 100.996 23.8371H98.9558V28H95.7378V14.2545ZM100.624 20.8916C101.291 20.8916 101.801 20.728 102.154 20.4007C102.52 20.0735 102.704 19.6218 102.704 19.0458C102.704 18.4698 102.52 18.0182 102.154 17.6909C101.801 17.3636 101.291 17.2 100.624 17.2H98.9558V20.8916H100.624Z" fill="black"/>
</svg>
