<svg width="294" height="110" viewBox="0 0 294 110" fill="none" xmlns="http://www.w3.org/2000/svg">
<path d="M43 0C19.255 0 0 19.2241 0 42.931C0 66.6379 19.255 85.8621 43 85.8621V110C43 110 86 94.7414 86 42.931C86 19.2241 66.745 0 43 0ZM28.8394 42.931C28.8394 35.1724 35.1426 28.7931 43 28.7931C50.8574 28.7931 57.1606 35.0862 57.1606 42.931C57.1606 50.6897 50.8574 57.069 43 57.069C35.1426 57.069 28.8394 50.6897 28.8394 42.931Z" fill="#256FFE"/>
<path d="M128.158 39.2H142.63C145.33 39.2 147.724 39.776 149.812 40.928C151.9 42.044 153.52 43.61 154.672 45.626C155.824 47.606 156.4 49.856 156.4 52.376C156.4 54.896 155.824 57.164 154.672 59.18C153.52 61.16 151.9 62.726 149.812 63.878C147.724 64.994 145.33 65.552 142.63 65.552H137.014V77H128.158V39.2ZM141.604 57.452C143.44 57.452 144.844 57.002 145.816 56.102C146.824 55.202 147.328 53.96 147.328 52.376C147.328 50.792 146.824 49.55 145.816 48.65C144.844 47.75 143.44 47.3 141.604 47.3H137.014V57.452H141.604ZM162.714 68.792H166.386C167.898 68.792 169.068 68.612 169.896 68.252C170.76 67.856 171.498 67.136 172.11 66.092L158.394 39.2H167.898L176.268 56.426L183.342 39.2H192.63L181.074 65.876C179.778 68.864 178.482 71.15 177.186 72.734C175.89 74.318 174.378 75.434 172.65 76.082C170.922 76.694 168.69 77 165.954 77H162.714V68.792ZM204.175 47.408H193.861V39.2H223.345V47.408H213.031V77H204.175V47.408ZM229.898 68.792H233.57C235.082 68.792 236.252 68.612 237.08 68.252C237.944 67.856 238.682 67.136 239.294 66.092L225.578 39.2H235.082L243.452 56.426L250.526 39.2H259.814L248.258 65.876C246.962 68.864 245.666 71.15 244.37 72.734C243.074 74.318 241.562 75.434 239.834 76.082C238.106 76.694 235.874 77 233.138 77H229.898V68.792ZM263.474 39.2H277.946C280.646 39.2 283.04 39.776 285.128 40.928C287.216 42.044 288.836 43.61 289.988 45.626C291.14 47.606 291.716 49.856 291.716 52.376C291.716 54.896 291.14 57.164 289.988 59.18C288.836 61.16 287.216 62.726 285.128 63.878C283.04 64.994 280.646 65.552 277.946 65.552H272.33V77H263.474V39.2ZM276.92 57.452C278.756 57.452 280.16 57.002 281.132 56.102C282.14 55.202 282.644 53.96 282.644 52.376C282.644 50.792 282.14 49.55 281.132 48.65C280.16 47.75 278.756 47.3 276.92 47.3H272.33V57.452H276.92Z" fill="black"/>
</svg>
